<svg xmlns="http://www.w3.org/2000/svg" viewBox="0 0 3134.82 2084.48" fill="#b8860b"><path d="M1548.24,23.65c-202.2,32.63-220,78.22-220,360.23V1708.22c0,291.37,21.91,317.24,220,353.64v22.62h-664v-22.62c202.66-35.25,217.42-82.72,217.42-353.64V1009.06c0-12.06-5.26-20-19.88-20L474.65,990.3c-15.85.37-22.19,7.15-22.14,22.18v697.1c0,276.75,19.4,326.52,220,352.07v22.6H0v-22.6c199.77-20.58,217.42-74.74,217.42-352.07V385.24C217.42,84.83,200.84,63.47,0,25V2.27H672.47V25c-201.3,35.83-220,70.33-220,360.23V889.89c0,9.15,2.07,19.23,16.58,19.26l607.55-1.28c17.94,0,25-7.49,25-22.56V383.88c0-286.69-12.88-329.65-217.42-360.23V.91h664Z"/><path d="M2649.31,888.93c274.93,35.57,485.51,262.32,485.51,581.06,0,215.54-105.31,386.28-252.78,490.31-130,90.88-291.9,124.08-455.27,124.08H1803.91v-22.07c216.68-27.12,228.73-83,228.73-342.82v-1387c0-249.9-41.35-297.39-228.73-309.31V0h684.38c199.54,1.36,316,46.59,396.68,115.62C2971.78,192.53,3029,315.14,3029,454.68,3029,751.55,2773.07,882.75,2649.31,888.93ZM2402,859.55c251-9.21,385-166.91,385-394.23C2787,231.89,2667,56.35,2432.49,50c-51.89-1.4-127.31,5.25-156.17,16.15-22.15,8.36-17,16.42-17,192.37V838.12c0,10.64,4.27,21.43,22.23,21.43ZM2259.29,1723c0,320.67-9.84,319,180.52,305.66,214.15-15,431-181.22,431-526.74,0-336.23-133.81-566.4-461-566.4l-133.22.08c-13,0-17.29,9.64-17.29,20Z"/></svg>